<?xml version="1.0" standalone="no"?>
<!DOCTYPE svg PUBLIC "-//W3C//DTD SVG 20010904//EN"
 "http://www.w3.org/TR/2001/REC-SVG-20010904/DTD/svg10.dtd">
<svg version="1.0" xmlns="http://www.w3.org/2000/svg"
 width="770.000000pt" height="573.000000pt" viewBox="0 0 770.000000 573.000000"
 preserveAspectRatio="xMidYMid meet">

<g transform="translate(0.000000,573.000000) scale(0.100000,-0.100000)"
fill="#000000" stroke="none">
<path d="M3630 3635 c-193 -55 -320 -206 -337 -402 -8 -101 18 -191 87 -300
14 -21 11 -26 -38 -76 -58 -59 -64 -83 -26 -97 31 -12 371 -12 472 -1 243 29
426 261 392 499 -32 221 -200 376 -420 388 -48 3 -94 -1 -130 -11z m314 -297
c18 -29 -4 -53 -53 -56 -31 -2 -41 -7 -41 -21 0 -10 -11 -40 -25 -66 -13 -27
-23 -50 -22 -51 11 -7 75 -24 92 -24 26 0 38 -23 29 -53 -5 -17 -13 -19 -63
-14 -32 2 -72 12 -90 22 -31 15 -35 15 -69 -1 -21 -10 -61 -18 -92 -19 -54 0
-55 0 -55 29 0 27 4 30 53 41 29 7 56 15 59 19 4 3 -3 25 -14 49 -12 23 -24
52 -28 65 -5 17 -14 22 -40 22 -31 0 -65 21 -65 40 0 5 7 16 16 24 14 14 43
16 206 14 169 -3 192 -5 202 -20z"/>
<path d="M3700 3273 c1 -5 9 -23 19 -41 19 -37 30 -32 50 21 10 27 10 27 -29
27 -22 0 -40 -3 -40 -7z"/>
<path d="M4243 3071 c-41 -174 -200 -333 -374 -374 -27 -6 -49 -15 -49 -20 0
-4 21 -17 48 -29 41 -19 69 -22 235 -26 191 -4 217 0 217 34 0 8 -15 31 -33
51 l-34 36 31 61 c27 53 31 71 30 141 0 60 -5 92 -21 128 -12 26 -26 47 -30
47 -5 0 -14 -22 -20 -49z"/>
<path d="M2750 2345 l0 -55 65 0 65 0 0 55 0 55 -65 0 -65 0 0 -55z"/>
<path d="M4380 2345 l0 -55 65 0 65 0 0 55 0 55 -65 0 -65 0 0 -55z"/>
<path d="M5330 2278 l-1 -123 -20 28 c-30 40 -73 58 -135 58 -64 0 -109 -22
-140 -69 -56 -82 -30 -221 49 -264 74 -39 171 -26 217 30 l29 36 7 -42 7 -42
53 0 54 0 0 255 0 255 -60 0 -60 0 0 -122z m-48 -129 c27 -14 51 -74 43 -109
-16 -71 -117 -98 -170 -45 -19 18 -25 35 -25 67 1 45 12 67 45 86 25 15 80 15
107 1z"/>
<path d="M2160 2377 c0 -2 31 -75 69 -162 l68 -160 72 -3 c39 -2 71 -5 71 -8
0 -3 -13 -37 -30 -76 -16 -38 -30 -72 -30 -74 0 -2 33 -4 73 -4 l72 0 97 228
c54 125 100 235 104 245 5 15 -2 17 -67 17 l-74 0 -64 -153 c-35 -83 -67 -156
-71 -160 -4 -4 -37 64 -75 153 l-68 160 -74 0 c-40 0 -73 -1 -73 -3z"/>
<path d="M2950 2311 c0 -30 -6 -44 -25 -59 -18 -15 -25 -29 -25 -56 0 -32 3
-36 25 -36 25 0 25 -1 25 -85 0 -146 32 -185 155 -185 l65 0 0 43 c0 43 -1 43
-42 53 l-43 9 -3 83 -3 82 46 0 45 0 0 40 0 40 -81 0 c-51 0 -78 4 -74 10 3 6
15 10 26 10 20 0 39 34 39 71 0 17 -7 19 -65 19 l-65 0 0 -39z"/>
<path d="M3285 2231 c-100 -46 -133 -151 -79 -258 19 -40 35 -57 68 -72 73
-36 155 -22 204 34 l30 34 7 -40 7 -39 54 0 54 0 0 175 0 175 -60 0 -60 0 0
-37 0 -37 -32 31 c-32 30 -90 53 -133 53 -11 0 -38 -9 -60 -19z m175 -86 c52
-27 57 -118 9 -157 -25 -21 -96 -24 -120 -5 -40 30 -51 96 -23 135 29 42 84
53 134 27z"/>
<path d="M4162 2239 c-36 -7 -78 -41 -88 -71 -7 -22 -24 -24 -24 -2 0 8 -13
29 -29 45 -26 25 -37 29 -88 29 -64 0 -117 -24 -128 -59 -10 -33 -23 -25 -27
17 l-3 37 -55 0 -55 0 -3 -172 -2 -173 65 0 65 0 0 109 c0 94 3 112 21 135 26
33 77 36 105 5 16 -18 20 -40 22 -135 l4 -114 59 0 59 0 0 100 c0 142 28 185
105 166 36 -9 45 -42 45 -162 l0 -104 65 0 65 0 0 94 c0 122 -14 195 -44 225
-27 27 -86 40 -134 30z"/>
<path d="M2750 2065 l0 -175 65 0 65 0 0 175 0 175 -65 0 -65 0 0 -175z"/>
<path d="M4380 2065 l0 -175 65 0 65 0 0 175 0 175 -65 0 -65 0 0 -175z"/>
<path d="M4560 2065 l0 -175 59 0 59 0 4 104 c3 114 21 157 68 164 75 11 100
-31 100 -173 l0 -95 60 0 60 0 0 120 c0 134 -11 173 -55 208 -21 16 -41 22
-82 22 -66 0 -107 -20 -130 -63 l-17 -32 -10 48 -9 47 -54 0 -53 0 0 -175z"/>
</g>
</svg>
